<svg width="22" height="22" viewBox="0 0 22 22" fill="none" xmlns="http://www.w3.org/2000/svg">
<circle cx="11" cy="11" r="11" fill="#707070"/>
<path d="M18.8569 15.9762C18.8569 17.5476 15.714 20.4286 11.2616 20.4286H9.6902C6.80925 20.4286 3.14258 17.4429 3.14258 15.9762C3.14258 14.5095 5.02829 11.5238 6.28544 11.5238C7.54258 11.5238 8.95686 13.619 11.2616 13.619C13.5664 13.619 14.6664 11.5238 15.714 11.5238C17.3902 11.5238 18.8569 14.4048 18.8569 15.9762Z" fill="white"/>
<path d="M15.7137 7.85715C15.7137 10.4608 13.6031 12.5714 10.9994 12.5714C8.39581 12.5714 6.28516 10.4608 6.28516 7.85715C6.28516 5.25352 8.39581 3.14286 10.9994 3.14286C13.6031 3.14286 15.7137 5.25352 15.7137 7.85715Z" fill="white"/>
</svg>
