<svg width="40" height="40" viewBox="0 0 40 40" fill="none" xmlns="http://www.w3.org/2000/svg">
<path d="M7.62454 7.62454C8.09336 7.15587 8.72913 6.89258 9.39204 6.89258C10.055 6.89258 10.6907 7.15587 11.1595 7.62454L19.9995 16.4645L28.8395 7.62454C29.3111 7.16915 29.9426 6.91716 30.598 6.92286C31.2535 6.92856 31.8806 7.19148 32.3441 7.655C32.8076 8.11852 33.0705 8.74555 33.0762 9.40104C33.0819 10.0565 32.8299 10.688 32.3745 11.1595L23.5345 19.9995L32.3745 28.8395C32.8299 29.3111 33.0819 29.9426 33.0762 30.598C33.0705 31.2535 32.8076 31.8806 32.3441 32.3441C31.8806 32.8076 31.2535 33.0705 30.598 33.0762C29.9426 33.0819 29.3111 32.8299 28.8395 32.3745L19.9995 23.5345L11.1595 32.3745C10.688 32.8299 10.0565 33.0819 9.40104 33.0762C8.74555 33.0705 8.11852 32.8076 7.655 32.3441C7.19148 31.8806 6.92856 31.2535 6.92286 30.598C6.91716 29.9426 7.16915 29.3111 7.62454 28.8395L16.4645 19.9995L7.62454 11.1595C7.15587 10.6907 6.89258 10.055 6.89258 9.39204C6.89258 8.72913 7.15587 8.09336 7.62454 7.62454Z" fill="black"/>
</svg>
