<svg width="24" height="24" viewBox="0 0 24 24" fill="none" xmlns="http://www.w3.org/2000/svg">
<path d="M15.5248 13.4864H19.7485H20.9136C21.6269 13.4864 22.1543 13.2394 22.4956 12.8127C22.8281 12.3971 22.9527 11.85 22.9527 11.3017C22.9527 10.6314 22.8777 9.71434 22.6068 8.93889C22.3394 8.17361 21.8402 7.44552 20.9378 7.37032C20.4753 7.33177 20.1407 7.36797 19.8723 7.46023C19.6018 7.55319 19.4225 7.69582 19.2735 7.81685C19.2685 7.82089 19.2636 7.8249 19.2587 7.82889C19.1162 7.94475 19.0025 8.03719 18.833 8.10957C18.6594 8.18372 18.409 8.24318 18.0007 8.24318C17.4721 8.24318 17.1398 8.19008 16.9158 8.11994C16.699 8.05209 16.5715 7.96474 16.4532 7.87008C16.4325 7.85353 16.4105 7.83527 16.3872 7.81586C16.2818 7.72817 16.1482 7.61705 15.9763 7.53454C15.7553 7.42846 15.4815 7.36931 15.0879 7.36931C14.1853 7.36931 13.6005 8.05106 13.2565 8.81546C12.9081 9.58971 12.7575 10.5427 12.7575 11.3017C12.7575 12.1187 13.0893 12.6757 13.5223 13.022C13.9429 13.3586 14.4457 13.4864 14.7966 13.4864H15.5248Z" fill="#6E6E6E" stroke="white" stroke-width="0.582578"/>
<circle cx="18.0005" cy="5.6216" r="2.3316" fill="#6E6E6E" stroke="white" stroke-width="0.58"/>
<path d="M3.47596 13.4864H7.69965H8.86481C9.57802 13.4864 10.1054 13.2394 10.4468 12.8127C10.7793 12.3971 10.9038 11.85 10.9038 11.3017C10.9038 10.6314 10.8289 9.71434 10.5579 8.93889C10.2906 8.17361 9.79141 7.44552 8.889 7.37032C8.42644 7.33177 8.09184 7.36797 7.82343 7.46023C7.55301 7.55319 7.37363 7.69582 7.22468 7.81685C7.2197 7.82089 7.21477 7.8249 7.20986 7.82889C7.06735 7.94475 6.95366 8.03719 6.7842 8.10957C6.61057 8.18372 6.3602 8.24318 5.95192 8.24318C5.42331 8.24318 5.09099 8.19008 4.86695 8.11994C4.6502 8.05209 4.52268 7.96474 4.40435 7.87008C4.38367 7.85353 4.36171 7.83527 4.33838 7.81586C4.23294 7.72817 4.09933 7.61705 3.92743 7.53454C3.70643 7.42846 3.43267 7.36931 3.03902 7.36931C2.13647 7.36931 1.55169 8.05106 1.20771 8.81546C0.8593 9.58971 0.708711 10.5427 0.708711 11.3017C0.708711 12.1187 1.04046 12.6757 1.47343 13.022C1.8941 13.3586 2.39687 13.4864 2.74774 13.4864H3.47596Z" fill="#6E6E6E" stroke="white" stroke-width="0.582578"/>
<circle cx="5.95168" cy="5.6216" r="2.3316" fill="#6E6E6E" stroke="white" stroke-width="0.58"/>
<path d="M8.18317 21.4634H14.9027H16.7563C17.891 21.4634 18.73 21.0704 19.2731 20.3916C19.8021 19.7303 20.0002 18.86 20.0002 17.9878C20.0002 16.9214 19.881 15.4624 19.45 14.2287C19.0246 13.0112 18.2305 11.8529 16.7948 11.7333C16.0589 11.6719 15.5266 11.7295 15.0996 11.8763C14.6694 12.0242 14.384 12.2511 14.147 12.4436C14.1391 12.4501 14.1313 12.4565 14.1235 12.4628C13.8967 12.6471 13.7159 12.7942 13.4463 12.9093C13.17 13.0273 12.7717 13.1219 12.1222 13.1219C11.2812 13.1219 10.7525 13.0374 10.3961 12.9258C10.0513 12.8179 9.84841 12.6789 9.66016 12.5283C9.62725 12.502 9.59232 12.473 9.5552 12.4421C9.38745 12.3026 9.17489 12.1258 8.90142 11.9945C8.54982 11.8258 8.1143 11.7317 7.48804 11.7317C6.05215 11.7317 5.12183 12.8163 4.57459 14.0324C4.0203 15.2641 3.78073 16.7802 3.78073 17.9878C3.78073 19.2876 4.30851 20.1736 4.99733 20.7246C5.66658 21.26 6.46644 21.4634 7.02463 21.4634H8.18317Z" fill="#6E6E6E" stroke="white" stroke-width="0.926829"/>
<circle cx="12.1219" cy="9.95119" r="3.67073" fill="#6E6E6E" stroke="white"/>
</svg>
