<svg width="24" height="24" viewBox="0 0 24 24" fill="none" xmlns="http://www.w3.org/2000/svg">
<path d="M1.99621 9.72438L2.90533 8.81526C3.28192 8.43866 3.89248 8.43866 4.26903 8.81526L4.49632 9.04256L9.04203 4.49689L8.81474 4.26959C8.43815 3.893 8.43815 3.28245 8.81474 2.90589L9.72386 1.99674C10.1004 1.62015 10.711 1.62015 11.0876 1.99674L16.0878 6.99699C16.4644 7.37358 16.4644 7.98414 16.0878 8.36068L15.1787 9.2698C14.8021 9.6464 14.1915 9.6464 13.815 9.2698L13.5877 9.04251L11.9967 10.6335L15.2528 13.8896L15.4801 13.6623C15.9822 13.1602 16.7962 13.1602 17.2983 13.6623L21.9086 18.2726C22.4107 18.7747 22.4107 19.5888 21.9086 20.0909L20.0903 21.9091C19.5882 22.4112 18.7741 22.4112 18.272 21.9091L13.6617 17.2989C13.1596 16.7968 13.1596 15.9827 13.6617 15.4806L13.889 15.2533L10.633 11.9972L9.04199 13.5882L9.26928 13.8155C9.64587 14.1921 9.64587 14.8027 9.26928 15.1792L8.36016 16.0883C7.98357 16.4649 7.37301 16.4649 6.99646 16.0883L1.99621 11.0881C1.61966 10.7115 1.61966 10.101 1.99621 9.72438Z" fill="#707070"/>
</svg>
