<svg width="21" height="24" viewBox="0 0 21 24" fill="none" xmlns="http://www.w3.org/2000/svg">
<path d="M15.9836 6.76229C15.4918 6.76229 15.3689 7.17213 15.3689 7.37705V9.22131H19.055V9.83607L17.2107 11.373V12.2951C18.1328 12.2951 20.2845 15.9836 20.2845 19.6721C20.2845 22.4385 19.055 23.9754 14.7517 23.9754H6.14754C4.61066 23.9754 -0.00240138 24.5902 0 19.6721C0.00228314 15 2.04918 12.8074 3.07377 12.2951V11.373L1.22951 9.83607V9.22131H4.91803V7.37705C4.91803 7.17213 4.79508 6.76229 4.30328 6.76229C3.9959 6.76229 1.84426 6.76229 1.84426 6.14754C1.84426 4.91803 2.45902 4.61066 2.76639 4.61066C3.75 4.61066 4.61066 4.61066 4.91803 4.30328C5.65574 4.30328 5.53279 0 7.68443 0C9.15984 0 8.91393 0.922131 10.4508 0.922131C11.9877 0.922131 11.6803 0 12.9098 0C15.3689 0 14.4467 4.30328 15.6762 4.30328C16.0861 4.40574 17.0287 4.61066 17.5205 4.61066C18.1352 4.61066 18.4426 5.53279 18.4426 6.14754C18.4426 6.76229 16.5984 6.76229 15.9836 6.76229Z" fill="#6F6F6F"/>
<path d="M14.1363 7.37704H6.14453V7.9918C6.14453 9.71311 7.37404 10.3484 7.98879 10.4508C9.83306 10.4508 9.52568 8.91393 10.1404 8.60655C11.0626 8.91393 10.0175 10.4508 11.9847 10.4508C13.9519 10.4508 14.2388 8.40163 14.1363 7.37704Z" fill="white"/>
<path d="M13.523 12.9098C11.8017 12.9098 10.7566 14.959 10.4492 15.9836V16.5983C10.4492 17.0901 11.4738 20.4918 11.9861 22.1311L13.523 14.7541V12.9098Z" fill="white"/>
<path d="M6.76021 12.9098C8.48153 12.9098 9.52661 14.959 9.83398 15.9836V16.5983C9.83398 17.0901 8.80939 20.4918 8.2971 22.1311L6.76021 14.7541V12.9098Z" fill="white"/>
</svg>
